<svg width="91.888428" height="25.224609" viewBox="0 0 91.8884 25.2246" fill="none" xmlns="http://www.w3.org/2000/svg" xmlns:xlink="http://www.w3.org/1999/xlink">
	<desc>
			Created with Pixso.
	</desc>
	<defs/>
	<path id="Tilda+" d="M5.90574 6.60645L2.60252 6.60645C1.88181 6.60645 1.26788 6.35286 0.760719 5.8457C0.253558 5.33854 -2.28882e-05 4.72461 -2.28882e-05 4.00391C-2.28882e-05 3.2832 0.253558 2.66927 0.760719 2.16211C1.26788 1.65495 1.88181 1.40137 2.60252 1.40137L14.414 1.40137C15.1347 1.40137 15.7487 1.65495 16.2558 2.16211C16.763 2.66927 17.0166 3.2832 17.0166 4.00391C17.0166 4.72461 16.763 5.33854 16.2558 5.8457C15.7487 6.35286 15.1347 6.60645 14.414 6.60645L11.1108 6.60645L11.1108 22.6221C11.1108 23.3428 10.8572 23.9567 10.3501 24.4639C9.84291 24.971 9.22898 25.2246 8.50828 25.2246C7.78757 25.2246 7.17364 24.971 6.66648 24.4639C6.15932 23.9567 5.90574 23.3428 5.90574 22.6221L5.90574 6.60645ZM21.6609 0C22.3816 0 22.9955 0.25358 23.5027 0.760742C24.0098 1.2679 24.2634 1.88184 24.2634 2.60254C24.2634 3.32324 24.0098 3.93717 23.5027 4.44434C22.9955 4.9515 22.3816 5.20508 21.6609 5.20508C20.9402 5.20508 20.3262 4.9515 19.8191 4.44434C19.3119 3.93717 19.0583 3.32324 19.0583 2.60254C19.0583 1.88184 19.3119 1.2679 19.8191 0.760742C20.3262 0.25358 20.9402 0 21.6609 0ZM24.1633 22.7222C24.1633 23.4162 23.9164 24.0101 23.4226 24.5039C22.9421 24.9844 22.3549 25.2246 21.6609 25.2246C20.9669 25.2246 20.373 24.9844 19.8791 24.5039C19.3987 24.0101 19.1584 23.4162 19.1584 22.7222L19.1584 9.70947C19.1584 9.01546 19.3987 8.42822 19.8791 7.94775C20.373 7.45394 20.9669 7.20703 21.6609 7.20703C22.3549 7.20703 22.9421 7.45394 23.4226 7.94775C23.9164 8.42822 24.1633 9.01546 24.1633 9.70947L24.1633 22.7222ZM31.5103 22.7222C31.5103 23.4162 31.2633 24.0101 30.7695 24.5039C30.2891 24.9844 29.7018 25.2246 29.0078 25.2246C28.3138 25.2246 27.7199 24.9844 27.2261 24.5039C26.7456 24.0101 26.5054 23.4162 26.5054 22.7222L26.5054 3.50342C26.5054 2.80941 26.7456 2.22217 27.2261 1.7417C27.7199 1.24788 28.3138 1.00098 29.0078 1.00098C29.7018 1.00098 30.2891 1.24788 30.7695 1.7417C31.2633 2.22217 31.5103 2.80941 31.5103 3.50342L31.5103 22.7222ZM42.5608 20.2197C43.6685 20.2197 44.6095 19.8327 45.3836 19.0586C46.171 18.2712 46.5647 17.3236 46.5647 16.2158C46.5647 15.1081 46.171 14.1672 45.3836 13.3931C44.6095 12.6056 43.6685 12.2119 42.5608 12.2119C41.453 12.2119 40.5055 12.6056 39.718 13.3931C38.9439 14.1672 38.5569 15.1081 38.5569 16.2158C38.5569 17.3236 38.9439 18.2712 39.718 19.0586C40.5055 19.8327 41.453 20.2197 42.5608 20.2197ZM46.9651 24.1035C45.6572 24.8509 44.1891 25.2246 42.5608 25.2246C40.065 25.2246 37.9363 24.3504 36.1746 22.6021C34.4262 20.8403 33.552 18.7116 33.552 16.2158C33.552 13.7201 34.4262 11.598 36.1746 9.84961C37.9363 8.08789 40.065 7.20703 42.5608 7.20703C44.0289 7.20703 45.3635 7.50732 46.5647 8.10791L46.5647 3.50342C46.5647 2.80941 46.8049 2.22217 47.2854 1.7417C47.7792 1.24788 48.3731 1.00098 49.0671 1.00098C49.7612 1.00098 50.3484 1.24788 50.8289 1.7417C51.3227 2.22217 51.5696 2.80941 51.5696 3.50342L51.5696 22.7222C51.5696 23.4162 51.3227 24.0101 50.8289 24.5039C50.3484 24.9844 49.7612 25.2246 49.0671 25.2246C48.3731 25.2246 47.7859 24.9777 47.3054 24.4839C47.172 24.3638 47.0585 24.237 46.9651 24.1035ZM62.6201 20.2197C63.7279 20.2197 64.6688 19.8327 65.4429 19.0586C66.2303 18.2712 66.624 17.3236 66.624 16.2158C66.624 15.1081 66.2303 14.1672 65.4429 13.3931C64.6688 12.6056 63.7279 12.2119 62.6201 12.2119C61.5124 12.2119 60.5648 12.6056 59.7774 13.3931C59.0033 14.1672 58.6162 15.1081 58.6162 16.2158C58.6162 17.3236 59.0033 18.2712 59.7774 19.0586C60.5648 19.8327 61.5124 20.2197 62.6201 20.2197ZM67.0244 24.1035C65.7165 24.8509 64.2484 25.2246 62.6201 25.2246C60.1244 25.2246 57.9956 24.3504 56.2339 22.6021C54.4855 20.8403 53.6113 18.7116 53.6113 16.2158C53.6113 13.7201 54.4855 11.598 56.2339 9.84961C57.9956 8.08789 60.1244 7.20703 62.6201 7.20703C64.2484 7.20703 65.7165 7.58073 67.0244 8.32812C67.1179 8.19466 67.2313 8.0612 67.3648 7.92773C67.8452 7.44727 68.4325 7.20703 69.1265 7.20703C69.8205 7.20703 70.4077 7.45394 70.8882 7.94775C71.382 8.42822 71.6289 9.01546 71.6289 9.70947L71.6289 22.7222C71.6289 23.4162 71.382 24.0101 70.8882 24.5039C70.4077 24.9844 69.8205 25.2246 69.1265 25.2246C68.4325 25.2246 67.8452 24.9777 67.3648 24.4839C67.2313 24.3638 67.1179 24.237 67.0244 24.1035ZM85.4822 10.6104L89.2859 10.6104C90.0066 10.6104 90.6205 10.8639 91.1277 11.3711C91.6349 11.8783 91.8885 12.4922 91.8885 13.2129C91.8885 13.9336 91.6349 14.5475 91.1277 15.0547C90.6205 15.5618 90.0066 15.8154 89.2859 15.8154L85.4822 15.8154L85.4822 19.6191C85.4822 20.3398 85.2286 20.9538 84.7215 21.4609C84.2143 21.9681 83.6004 22.2217 82.8797 22.2217C82.159 22.2217 81.545 21.9681 81.0379 21.4609C80.5307 20.9538 80.2771 20.3398 80.2771 19.6191L80.2771 15.8154L76.4734 15.8154C75.7527 15.8154 75.1388 15.5618 74.6316 15.0547C74.1245 14.5475 73.8709 13.9336 73.8709 13.2129C73.8709 12.4922 74.1245 11.8783 74.6316 11.3711C75.1388 10.8639 75.7527 10.6104 76.4734 10.6104L80.2771 10.6104L80.2771 6.80664C80.2771 6.08594 80.5307 5.472 81.0379 4.96484C81.545 4.45768 82.159 4.2041 82.8797 4.2041C83.6004 4.2041 84.2143 4.45768 84.7215 4.96484C85.2286 5.472 85.4822 6.08594 85.4822 6.80664L85.4822 10.6104Z" fill="#000000" fill-opacity="1.000000" fill-rule="evenodd"/>
</svg>
